<?xml version="1.0" encoding="UTF-8"?>
<!-- Generator: Adobe Illustrator 22.1.0, SVG Export Plug-In . SVG Version: 6.00 Build 0)  -->
<svg xmlns="http://www.w3.org/2000/svg" xmlns:xlink="http://www.w3.org/1999/xlink" id="Ebene_1" x="0px" y="0px" viewBox="0 0 84.3 81" style="enable-background:new 0 0 84.3 81;" xml:space="preserve">
<style type="text/css">
	.st0{fill:#89775F;}
</style>
<g>
	<path class="st0" d="M60.8,58.4l-0.6-3.2c-2.2,0.5-3.5,0.6-4.7,0.6c-1.7,0-2.8-0.8-3.3-2h8.7c0.2-1,0.2-1.4,0.2-2.5   c0-3.5-2.7-5.9-6.5-5.9c-4,0-6.9,2.7-6.9,6.9c0,4,2.7,6.9,7.6,6.9C57.2,59.5,59,59,60.8,58.4z M54.9,48.9c1.5,0,2.5,0.9,2.6,2.4   h-5.4C52.5,49.8,53.5,48.9,54.9,48.9z"></path>
	<path class="st0" d="M78.5,59.5V46.3c-3.9-0.5-5.3-0.6-7.8-0.6c-4,0-6.4,2.7-6.5,6.8c0,4.5,3,7,6.2,7c1.6,0,2.7-0.5,3.8-1.3   l0.4,1.3H78.5z M74.2,54.7c-1,0.8-1.9,1.1-2.8,1.1c-1.7,0-2.9-1.3-2.9-3.3c0-2,1-3.4,3.1-3.4c0.9,0,1.7,0.1,2.6,0.1V54.7z"></path>
	<path class="st0" d="M4.2,10.8c0,4.5,3,7,6.2,7c1.6,0,2.7-0.5,3.8-1.3l0.4,1.3h4V4.6C14.6,4.2,13.2,4,10.7,4   C6.7,4,4.3,6.7,4.2,10.8z M14.1,7.6v5.4c-1,0.8-1.9,1.1-2.8,1.1c-1.7,0-2.9-1.3-2.9-3.3c0-2,1-3.4,3.1-3.4   C12.5,7.5,13.3,7.6,14.1,7.6z"></path>
	<path class="st0" d="M25.7,68.1l-3.3,7.8h0.9l1-2.3h3.5l1,2.3h1l-3.3-7.8H25.7z M24.7,72.6l1.4-3.3l1.4,3.3H24.7z"></path>
	<path class="st0" d="M32.2,75.1c-0.4,0-0.6-0.3-0.6-1v-6h-0.9v6.4c0,1,0.4,1.4,1.1,1.4c0.5,0,0.9-0.2,1.2-0.4l-0.2-0.7   C32.7,75,32.5,75.1,32.2,75.1z"></path>
	<path class="st0" d="M35.4,75.1c-0.4,0-0.6-0.3-0.6-1v-6H34v6.4c0,1,0.4,1.4,1.1,1.4c0.5,0,0.9-0.2,1.2-0.4l-0.2-0.7   C35.9,75,35.7,75.1,35.4,75.1z"></path>
	<path class="st0" d="M39.4,70.8c-1.6,0-2.6,1.1-2.6,2.6c0,1.6,1,2.6,2.7,2.6c0.7,0,1.4-0.2,1.9-0.7l-0.3-0.7   c-0.3,0.3-0.9,0.5-1.5,0.5c-1,0-1.7-0.6-1.7-1.5h3.8c0-0.2,0.1-0.4,0.1-0.6C41.7,71.7,40.7,70.8,39.4,70.8z M37.8,72.9   c0.1-0.8,0.7-1.3,1.6-1.3c0.9,0,1.4,0.5,1.4,1.3H37.8z"></path>
	<path class="st0" d="M44.6,70.8c-0.6,0-1.2,0.2-1.7,0.5l0.2,0.7c0.4-0.2,0.8-0.4,1.4-0.4c1,0,1.1,0.6,1.1,1.6   c-0.3-0.2-0.8-0.3-1.2-0.3c-1.1,0-1.9,0.6-1.9,1.6c0,1,0.6,1.5,1.5,1.5c0.8,0,1.3-0.3,1.6-0.7v0.6h0.8v-3   C46.5,71.5,46,70.8,44.6,70.8z M45.7,74.5c-0.3,0.3-0.6,0.6-1.3,0.6c-0.6,0-0.9-0.3-0.9-0.8c0-0.6,0.5-0.8,1.1-0.8   c0.4,0,0.8,0.1,1.1,0.3V74.5z"></path>
	<path class="st0" d="M54,72.8h2.1v1.6c-0.4,0.4-1.3,0.7-2,0.7c-1.8,0-2.9-1.2-2.9-3.1c0-1.9,1.2-3.1,2.9-3.1c0.7,0,1.5,0.2,1.9,0.6   l0.4-0.7C55.8,68.3,55,68,54,68c-2.3,0-3.8,1.8-3.8,4c0,2.4,1.5,4,3.9,4c1,0,2.2-0.4,2.9-1.1v-3h-3V72.8z"></path>
	<path class="st0" d="M59.3,71.5v-0.6h-0.9v5h0.9v-3.5c0.2-0.4,0.5-0.7,1-0.7c0.3,0,0.4,0,0.7,0.2l0.3-0.8c-0.2-0.1-0.4-0.2-0.8-0.2   C60,70.8,59.6,71.1,59.3,71.5z"></path>
	<path class="st0" d="M64.5,70.8c-1.6,0-2.6,1.1-2.6,2.6c0,1.5,1.1,2.6,2.6,2.6s2.6-1.1,2.6-2.6C67.2,71.9,66.1,70.8,64.5,70.8z    M64.5,75.1c-1,0-1.7-0.7-1.7-1.8c0-1,0.7-1.8,1.7-1.8c1,0,1.7,0.7,1.7,1.8C66.2,74.4,65.5,75.1,64.5,75.1z"></path>
	<path class="st0" d="M71.9,74.4c-0.3,0.4-0.8,0.7-1.4,0.7c-0.9,0-1.3-0.6-1.3-1.5v-2.8h-0.9v3c0,1.5,0.7,2.1,1.8,2.1   c0.8,0,1.4-0.4,1.8-0.8v0.7h0.9v-5h-0.9V74.4z"></path>
	<path class="st0" d="M77,70.8c-0.7,0-1.3,0.3-1.7,0.7v-0.6h-0.9v7.2h0.9v-2.4c0.4,0.2,0.9,0.3,1.4,0.3c1.6,0,2.6-1.2,2.6-2.7   C79.3,71.8,78.4,70.8,77,70.8z M76.6,75.1c-0.5,0-0.9-0.1-1.3-0.4v-2.5c0.3-0.4,0.8-0.7,1.4-0.7c1,0,1.6,0.7,1.6,1.7   C78.3,74.4,77.7,75.1,76.6,75.1z"></path>
	<polygon class="st0" points="43.9,45.6 36.9,45.6 36.9,4 32.3,4 32.3,45.6 32.3,45.6 32.3,50.2 32.3,50.2 32.3,50.2 36.9,50.2    36.9,50.2 43.9,50.2  "></polygon>
	<polygon class="st0" points="27.7,59.5 27.7,59.5 43.9,59.5 43.9,54.8 27.7,54.8 27.7,4 23.1,4 23.1,54.8 23.1,54.8 23.1,59.5    23.1,59.5 23.1,59.5  "></polygon>
</g>
</svg>
