<?xml version="1.0" encoding="UTF-8"?>
<svg xmlns="http://www.w3.org/2000/svg" xmlns:xlink="http://www.w3.org/1999/xlink" width="180px" height="52px" viewBox="0 0 180 52">
  <!-- Generator: Sketch 50.2 (55047) - http://www.bohemiancoding.com/sketch -->
  <title>piment-logo</title>
  <desc>Created with Sketch.</desc>
  <defs></defs>
  <g id="logos" stroke="none" stroke-width="1" fill="none" fill-rule="evenodd">
    <g id="Artboard-Copy" transform="translate(-210.000000, -414.000000)" fill="#89775F">
      <g id="piment-logo" transform="translate(210.000000, 414.000000)">
        <path d="M52.013669,50.1682169 C52.013669,50.5151272 52.0043586,50.6879584 51.9373241,50.8133702 C51.8125655,51.0348687 51.4867034,51.1409384 51.2762897,51.1502975 C51.1800828,51.1502975 51.0652552,51.1502975 51.0652552,51.2083238 C51.0652552,51.2563671 51.1416,51.2563671 51.2378069,51.2563671 C51.6493241,51.2563671 52.0229793,51.237025 52.319669,51.237025 C52.5971172,51.237025 52.9893931,51.2563671 53.3822897,51.2563671 C53.4784966,51.2563671 53.5548414,51.2563671 53.5548414,51.2083238 C53.5548414,51.1502975 53.4400138,51.1502975 53.3444276,51.1502975 C53.1333931,51.1409384 52.807531,51.0348687 52.6833931,50.8133702 C52.6157379,50.6879584 52.6064276,50.5151272 52.6064276,50.1682169 L52.6064276,46.7696194 C52.6064276,46.5481209 52.6349793,46.4227091 52.6833931,46.3266224 C52.807531,46.105124 53.1333931,45.9990543 53.3444276,45.9896952 C53.4400138,45.9896952 53.5548414,45.9896952 53.5548414,45.9316688 C53.5548414,45.8836255 53.4784966,45.8836255 53.3822897,45.8836255 C52.9707724,45.8836255 52.5971172,45.9029676 52.3004276,45.9029676 C52.0229793,45.9029676 51.6307034,45.8836255 51.2378069,45.8836255 C51.1416,45.8836255 51.0652552,45.8836255 51.0652552,45.9316688 C51.0652552,45.9896952 51.1800828,45.9896952 51.2762897,45.9896952 C51.4867034,45.9990543 51.8125655,46.105124 51.9373241,46.3266224 C51.9851172,46.4227091 52.013669,46.5481209 52.013669,46.7696194 L52.013669,50.1682169 Z M61.4202207,47.0004769 C61.4202207,46.403367 61.5927724,45.9896952 62.291669,45.9896952 C62.4164276,45.9896952 62.435669,45.96037 62.435669,45.9316688 C62.435669,45.9029676 62.4263586,45.8836255 62.3208414,45.8836255 C61.9564966,45.8836255 61.6306345,45.9029676 61.267531,45.9029676 C60.9807724,45.9029676 60.5493931,45.8836255 60.2620138,45.8836255 C60.2142207,45.8836255 60.1564966,45.8836255 60.1564966,45.9316688 C60.1564966,45.9896952 60.2334621,45.9896952 60.3004966,45.9896952 C61.0956,45.9896952 61.1433931,46.403367 61.1433931,46.9811348 L61.1433931,50.3797324 L56.9270483,46.3840248 C56.4000828,45.8836255 56.371531,45.8836255 55.9600138,45.8836255 L54.8589103,45.8836255 C54.7633241,45.8836255 54.7341517,45.9896952 54.8973931,45.9896952 C55.5869793,45.9896952 55.7402897,46.3940079 55.759531,46.6535666 L55.759531,50.1488748 C55.759531,50.784669 55.6062207,51.1502975 54.8682207,51.1502975 C54.7056,51.1502975 54.6962897,51.2563671 54.8589103,51.2563671 C55.2226345,51.2563671 55.5007034,51.237025 55.8644276,51.237025 C56.1511862,51.237025 56.6111172,51.2563671 56.8984966,51.2563671 C57.0611172,51.2563671 57.0232552,51.1502975 56.8891862,51.1502975 C56.0934621,51.1502975 56.0264276,50.774686 56.0264276,50.1488748 L56.0264276,46.3653067 L61.1433931,51.1983408 C61.2768414,51.3331117 61.3060138,51.3524538 61.3631172,51.3524538 C61.4202207,51.3524538 61.4202207,51.227042 61.4202207,50.8327123 L61.4202207,47.0004769 Z M66.7761517,51.1215962 C66.8717379,51.2944274 66.919531,51.3524538 66.9679448,51.3524538 C67.0058069,51.3524538 67.0536,51.2944274 67.1591172,51.1215962 L69.6791172,46.8270218 C69.8994621,46.4613933 70.2153931,45.9896952 70.7423586,45.9896952 C70.8379448,45.9896952 70.9149103,45.9797122 70.9149103,45.9223097 C70.9149103,45.8836255 70.8671172,45.8836255 70.7901517,45.8836255 C70.5120828,45.8836255 70.2060828,45.9029676 69.9280138,45.9029676 C69.6598759,45.9029676 69.3532552,45.8836255 69.0658759,45.8836255 C68.969669,45.8836255 68.9218759,45.8742664 68.9218759,45.9316688 C68.9218759,45.9896952 69.0081517,45.9896952 69.1037379,45.9896952 C69.3818069,45.9896952 69.5543586,46.0857818 69.5543586,46.2979212 C69.5543586,46.3940079 69.5158759,46.5187957 69.4296,46.6729088 L67.1305655,50.620573 L64.8501517,46.5381379 C64.7738069,46.41335 64.7353241,46.3166394 64.7353241,46.2398949 C64.7353241,46.0470976 64.9271172,45.9896952 65.2238069,45.9896952 C65.3200138,45.9896952 65.4249103,45.9896952 65.4249103,45.9316688 C65.4249103,45.8836255 65.3392552,45.8836255 65.2337379,45.8836255 C64.8886345,45.8836255 64.6111862,45.9029676 64.2660828,45.9029676 C63.911669,45.9029676 63.6621517,45.8836255 63.317669,45.8836255 C63.2121517,45.8836255 63.1451172,45.8836255 63.1451172,45.9316688 C63.1451172,45.9896952 63.2407034,45.9896952 63.3369103,45.9896952 C63.8539448,45.9896952 64.1028414,46.4326921 64.3523586,46.865706 L66.7761517,51.1215962 Z M77.1509793,51.2563671 C77.3905655,51.2563671 77.5531862,51.237025 77.7257379,50.650522 L77.9653241,49.8506318 C77.9845655,49.7932294 77.9076,49.7545452 77.8691172,49.8312897 C77.3806345,50.8913626 76.8251172,51.0067914 75.7804966,51.0067914 L74.6601517,51.0067914 C73.5677379,51.0067914 73.5292552,50.8526784 73.5292552,50.03407 L73.5292552,48.5884025 C73.5292552,48.5690604 73.5391862,48.5503422 73.5584276,48.5503422 L75.7233931,48.5503422 C76.0684966,48.5503422 76.3937379,48.8005419 76.4992552,49.118751 C76.5377379,49.2248207 76.5377379,49.3209073 76.5948414,49.3209073 C76.6618759,49.3209073 76.6432552,49.2054785 76.6432552,49.118751 C76.6432552,48.9159707 76.6240138,48.6270868 76.6240138,48.4349135 C76.6240138,48.2433641 76.6432552,47.9345141 76.6432552,47.7323578 C76.6432552,47.6456302 76.6618759,47.5395605 76.5948414,47.5395605 C76.5377379,47.5395605 76.5377379,47.6262881 76.4992552,47.7323578 C76.3937379,48.079268 76.0492552,48.3007665 75.7233931,48.3007665 L73.5584276,48.3007665 C73.5391862,48.3007665 73.5292552,48.2914074 73.5292552,48.2620823 L73.5292552,46.4601454 C73.5292552,46.2193049 73.6347724,46.1325773 73.8265655,46.1325773 L75.9151862,46.1325773 C76.8822207,46.1325773 77.3998759,46.1712615 77.4576,47.1352478 C77.4576,47.2213514 77.5624966,47.2026333 77.5624966,47.1352478 L77.6965655,45.8642834 C77.7064966,45.81624 77.6965655,45.7875388 77.6587034,45.7875388 C77.6202207,45.7875388 77.5438759,45.8836255 77.0169103,45.8836255 L74.2765655,45.8836255 C73.9413931,45.8836255 73.6347724,45.9029676 73.2809793,45.9029676 C72.9942207,45.9029676 72.6106345,45.8836255 72.1891862,45.8836255 C72.0265655,45.8836255 71.9880828,45.8836255 71.9880828,45.9316688 C71.9880828,45.9890712 72.0265655,45.9890712 72.1798759,45.9890712 C72.3902897,45.9890712 72.7353931,46.094517 72.8601517,46.3160155 C72.9271862,46.4314442 72.9364966,46.6242415 72.9364966,46.9711518 L72.9364966,50.3709972 C72.9364966,50.5924957 72.9079448,50.7278905 72.8601517,50.8239772 C72.7353931,51.0454756 72.3902897,51.1509214 72.1798759,51.1509214 C72.0265655,51.1509214 71.9880828,51.1509214 71.9880828,51.2083238 C71.9880828,51.2563671 72.0265655,51.2563671 72.1891862,51.2563671 C72.5920138,51.2563671 72.9650483,51.237025 73.2524276,51.237025 C73.4814621,51.237025 73.7210483,51.2563671 74.0853931,51.2563671 L77.1509793,51.2563671 Z M84.8543586,46.3253745 C84.8351172,46.0558327 84.8158759,45.9790882 84.7488414,45.9790882 C84.6340138,45.9790882 84.6818069,46.1712615 84.4713931,46.1038761 C83.7234621,45.8736425 83.3882897,45.7875388 82.7272552,45.7875388 C81.5100828,45.7875388 80.1507724,46.084534 80.1507724,47.2406936 C80.1507724,49.426977 84.9120828,47.9338902 84.9120828,49.8992991 C84.9120828,50.8046351 83.9344966,51.103502 82.6887724,51.103502 C81.7018759,51.103502 80.3897379,50.9200638 79.9682897,49.5717309 C79.949669,49.5043455 79.9397379,49.4850034 79.9012552,49.4850034 C79.8441517,49.4850034 79.8342207,49.5236876 79.8342207,49.5523888 L79.987531,50.7565917 C80.0167034,50.9874493 80.0738069,51.093519 80.131531,51.093519 C80.2271172,51.093519 80.1600828,50.8626614 80.3704966,50.939406 C81.0787034,51.1896056 81.605669,51.3524538 82.5931862,51.3524538 C84.5669793,51.3524538 85.3608414,50.6311799 85.3608414,49.7065018 C85.3608414,47.4141487 80.6187724,48.8105249 80.6187724,47.0959396 C80.6187724,46.2773312 81.6633931,46.0364906 82.6502897,46.0364906 C83.9729793,46.0364906 84.6340138,46.4314442 84.8065655,47.2887369 C84.8258069,47.4141487 84.9213931,47.3754645 84.9213931,47.2793778 L84.8543586,46.3253745 Z M89.6926345,50.1682169 C89.6926345,50.5244863 89.6640828,50.6979414 89.6063586,50.8133702 C89.4816,51.0348687 89.1563586,51.1409384 88.9453241,51.1502975 C88.8497379,51.1502975 88.7342897,51.1502975 88.7342897,51.2083238 C88.7342897,51.2563671 88.8112552,51.2563671 88.9068414,51.2563671 C89.309669,51.2563671 89.6926345,51.237025 89.9793931,51.237025 C90.2568414,51.237025 90.6590483,51.2563671 91.0519448,51.2563671 C91.147531,51.2563671 91.2244966,51.2563671 91.2244966,51.2083238 C91.2244966,51.1502975 91.1084276,51.1502975 91.0134621,51.1502975 C90.8024276,51.1409384 90.4771862,51.0348687 90.3524276,50.8133702 C90.2853931,50.6879584 90.2661517,50.5145033 90.2661517,50.1682169 L90.2661517,46.1906036 L92.0481517,46.1906036 C92.6998759,46.1906036 92.9580828,46.4888467 93.1213241,46.9805109 C93.1306345,47.0285542 93.1591862,47.0379133 93.1883586,47.0379133 C93.2076,47.0379133 93.2454621,47.0185712 93.2361517,46.9511857 L93.0921517,45.8355822 C93.0921517,45.806257 93.0729103,45.7875388 93.0350483,45.7875388 C92.9959448,45.7875388 92.9673931,45.8836255 92.5080828,45.8836255 L87.4507034,45.8836255 C86.9907724,45.8836255 86.9622207,45.7875388 86.9237379,45.7875388 C86.8858759,45.7875388 86.8759448,45.7968979 86.8666345,45.8355822 L86.7226345,46.9524336 C86.7133241,46.9911178 86.7226345,47.0391611 86.7611172,47.0391611 C86.789669,47.0391611 86.8182207,47.0291781 86.8374621,46.9811348 C87.0007034,46.4888467 87.2589103,46.1906036 87.9106345,46.1906036 L89.6926345,46.1906036 L89.6926345,50.1682169 Z M102.931945,50.331689 C102.970428,50.4571008 102.998979,50.5725296 102.998979,50.6686163 C102.998979,50.9868253 102.768083,51.1502975 102.356566,51.1502975 C102.165393,51.1502975 102.213186,51.2563671 102.328634,51.2563671 C103.018221,51.2563671 103.267117,51.237025 103.544566,51.237025 C103.880359,51.237025 104.042979,51.2563671 104.50229,51.2563671 C104.656221,51.2563671 104.675462,51.1502975 104.4936,51.1502975 C103.822634,51.1502975 103.660014,50.6112139 103.516014,50.177576 L102.43291,46.9330915 C102.376428,46.7696194 102.290152,46.5094366 102.290152,46.3940079 C102.290152,45.9990543 102.778634,45.9896952 103.00829,45.9896952 C103.094566,45.9896952 103.113807,45.8836255 103.02691,45.8836255 L102.089048,45.8836255 C101.83891,45.8836255 101.590634,45.9416519 101.446634,46.2205527 L99.0420828,50.7073005 L96.8100828,46.2012106 C96.6760138,45.9223097 96.5419448,45.8836255 96.4072552,45.8836255 L95.3154621,45.8836255 C95.1813931,45.8836255 95.2099448,45.9896952 95.3253931,45.9896952 C95.7847034,45.9896952 95.9479448,46.0470976 95.9479448,46.259237 C95.9479448,46.3653067 95.9094621,46.5000776 95.8418069,46.6922509 L94.7407034,49.9754197 C94.4725655,50.7940281 94.2900828,51.1502975 93.629669,51.1502975 C93.4664276,51.1502975 93.4850483,51.2563671 93.5905655,51.2563671 C93.8878759,51.2563671 94.2137379,51.237025 94.5482897,51.237025 C94.9896,51.237025 95.0280828,51.2563671 95.4973241,51.2563671 C95.6313931,51.2563671 95.6698759,51.1502975 95.4880138,51.1502975 C95.0088414,51.1502975 94.8362897,51.0348687 94.8362897,50.7459848 C94.8362897,50.5725296 94.9033241,50.3416721 94.999531,50.0428051 L96.2160828,46.3166394 L98.5529793,50.9868253 C98.687669,51.2463841 98.7453931,51.391138 98.831669,51.391138 C98.9080138,51.391138 99.013531,51.2176829 99.2431862,50.7940281 L101.638428,46.3746658 L102.931945,50.331689 Z M110.968634,51.2563671 C111.208841,51.2563671 111.371462,51.237025 111.544014,50.650522 L111.7836,49.8506318 C111.802221,49.7932294 111.725876,49.7545452 111.687393,49.8312897 C111.19891,50.8913626 110.643393,51.0067914 109.598152,51.0067914 L108.478428,51.0067914 C107.386014,51.0067914 107.34691,50.8526784 107.34691,50.03407 L107.34691,48.5884025 C107.34691,48.5690604 107.357462,48.5503422 107.376083,48.5503422 L109.541669,48.5503422 C109.886772,48.5503422 110.212014,48.8005419 110.317531,49.118751 C110.356014,49.2248207 110.356014,49.3209073 110.413117,49.3209073 C110.479531,49.3209073 110.461531,49.2054785 110.461531,49.118751 C110.461531,48.9159707 110.44229,48.6270868 110.44229,48.4349135 C110.44229,48.2433641 110.461531,47.9345141 110.461531,47.7323578 C110.461531,47.6456302 110.479531,47.5395605 110.413117,47.5395605 C110.356014,47.5395605 110.356014,47.6262881 110.317531,47.7323578 C110.212014,48.079268 109.867531,48.3007665 109.541669,48.3007665 L107.376083,48.3007665 C107.357462,48.3007665 107.34691,48.2914074 107.34691,48.2620823 L107.34691,46.4601454 C107.34691,46.2193049 107.452428,46.1325773 107.644841,46.1325773 L109.733462,46.1325773 C110.700497,46.1325773 111.218152,46.1712615 111.275876,47.1352478 C111.275876,47.2213514 111.380152,47.2026333 111.380152,47.1352478 L111.514221,45.8642834 C111.524772,45.81624 111.514221,45.7875388 111.476979,45.7875388 C111.438497,45.7875388 111.361531,45.8836255 110.835186,45.8836255 L108.094841,45.8836255 C107.759669,45.8836255 107.452428,45.9029676 107.099255,45.9029676 C106.812497,45.9029676 106.42891,45.8836255 106.007462,45.8836255 C105.844841,45.8836255 105.806359,45.8836255 105.806359,45.9316688 C105.806359,45.9890712 105.844841,45.9890712 105.998152,45.9890712 C106.207945,45.9890712 106.553669,46.094517 106.677807,46.3160155 C106.745462,46.4314442 106.754152,46.6242415 106.754152,46.9711518 L106.754152,50.3709972 C106.754152,50.5924957 106.7256,50.7278905 106.677807,50.8239772 C106.553669,51.0454756 106.207945,51.1509214 105.998152,51.1509214 C105.844841,51.1509214 105.806359,51.1509214 105.806359,51.2083238 C105.806359,51.2563671 105.844841,51.2563671 106.007462,51.2563671 C106.41029,51.2563671 106.783324,51.237025 107.070703,51.237025 C107.299738,51.237025 107.539324,51.2563671 107.903048,51.2563671 L110.968634,51.2563671 Z M120.012703,47.0004769 C120.012703,46.403367 120.185255,45.9896952 120.884772,45.9896952 C121.00891,45.9896952 121.027531,45.96037 121.027531,45.9316688 C121.027531,45.9029676 121.018841,45.8836255 120.913324,45.8836255 C120.548979,45.8836255 120.223738,45.9029676 119.860014,45.9029676 C119.573255,45.9029676 119.141255,45.8836255 118.854497,45.8836255 C118.806083,45.8836255 118.748979,45.8836255 118.748979,45.9316688 C118.748979,45.9896952 118.825945,45.9896952 118.892979,45.9896952 C119.688083,45.9896952 119.735255,46.403367 119.735255,46.9811348 L119.735255,50.3797324 L115.51891,46.3840248 C114.992566,45.8836255 114.964014,45.8836255 114.552497,45.8836255 L113.450772,45.8836255 C113.355807,45.8836255 113.327255,45.9896952 113.489876,45.9896952 C114.179462,45.9896952 114.332152,46.3940079 114.352014,46.6535666 L114.352014,50.1488748 C114.352014,50.784669 114.198703,51.1502975 113.461324,51.1502975 C113.297462,51.1502975 113.288772,51.2563671 113.450772,51.2563671 C113.815117,51.2563671 114.093186,51.237025 114.45691,51.237025 C114.743048,51.237025 115.2036,51.2563671 115.490979,51.2563671 C115.654221,51.2563671 115.615738,51.1502975 115.481669,51.1502975 C114.685945,51.1502975 114.61891,50.774686 114.61891,50.1488748 L114.61891,46.3653067 L119.735255,51.1983408 C119.869945,51.3331117 119.898497,51.3524538 119.9556,51.3524538 C120.012703,51.3524538 120.012703,51.227042 120.012703,50.8327123 L120.012703,47.0004769 Z M125.388497,50.1682169 C125.388497,50.5244863 125.359945,50.6979414 125.302221,50.8133702 C125.177462,51.0348687 124.8516,51.1409384 124.641186,51.1502975 C124.544979,51.1502975 124.430152,51.1502975 124.430152,51.2083238 C124.430152,51.2563671 124.507117,51.2563671 124.602703,51.2563671 C125.00491,51.2563671 125.388497,51.237025 125.675255,51.237025 C125.952703,51.237025 126.35429,51.2563671 126.747807,51.2563671 C126.843393,51.2563671 126.919738,51.2563671 126.919738,51.2083238 C126.919738,51.1502975 126.80491,51.1502975 126.709324,51.1502975 C126.49829,51.1409384 126.173048,51.0348687 126.047669,50.8133702 C125.981255,50.6879584 125.962014,50.5145033 125.962014,50.1682169 L125.962014,46.1906036 L127.744014,46.1906036 C128.395117,46.1906036 128.653945,46.4888467 128.817186,46.9805109 C128.826497,47.0285542 128.855048,47.0379133 128.884221,47.0379133 C128.903462,47.0379133 128.940703,47.0185712 128.932014,46.9511857 L128.787393,45.8355822 C128.787393,45.806257 128.768772,45.7875388 128.73091,45.7875388 C128.692428,45.7875388 128.663876,45.8836255 128.203945,45.8836255 L123.146566,45.8836255 C122.686014,45.8836255 122.657462,45.7875388 122.6196,45.7875388 C122.580497,45.7875388 122.571807,45.7968979 122.562497,45.8355822 L122.418497,46.9524336 C122.409186,46.9911178 122.418497,47.0391611 122.456979,47.0391611 C122.485531,47.0391611 122.514083,47.0291781 122.533324,46.9811348 C122.696566,46.4888467 122.954772,46.1906036 123.606497,46.1906036 L125.388497,46.1906036 L125.388497,50.1682169 Z" id="Fill-1"></path>
        <path d="M48.9335586,40.5376508 C48.9335586,40.8845611 48.9242483,41.0573923 48.8572138,41.1828041 C48.7324552,41.4043026 48.4065931,41.5103723 48.1961793,41.5197314 C48.0999724,41.5197314 47.9851448,41.5197314 47.9851448,41.5777577 C47.9851448,41.625801 48.0614897,41.625801 48.1576966,41.625801 C48.5692138,41.625801 48.942869,41.6064589 49.2395586,41.6064589 C49.5170069,41.6064589 49.9092828,41.625801 50.3021793,41.625801 C50.3983862,41.625801 50.474731,41.625801 50.474731,41.5777577 C50.474731,41.5197314 50.3599034,41.5197314 50.2643172,41.5197314 C50.0532828,41.5103723 49.7274207,41.4043026 49.6032828,41.1828041 C49.5356276,41.0573923 49.5263172,40.8845611 49.5263172,40.5376508 L49.5263172,37.1390533 C49.5263172,36.9175548 49.554869,36.792143 49.6032828,36.6960563 C49.7274207,36.4745579 50.0532828,36.3684882 50.2643172,36.3591291 C50.3599034,36.3591291 50.474731,36.3591291 50.474731,36.3011027 C50.474731,36.2530594 50.3983862,36.2530594 50.3021793,36.2530594 C49.8906621,36.2530594 49.5170069,36.2724015 49.2203172,36.2724015 C48.942869,36.2724015 48.5505931,36.2530594 48.1576966,36.2530594 C48.0614897,36.2530594 47.9851448,36.2530594 47.9851448,36.3011027 C47.9851448,36.3591291 48.0999724,36.3591291 48.1961793,36.3591291 C48.4065931,36.3684882 48.7324552,36.4745579 48.8572138,36.6960563 C48.9050069,36.792143 48.9335586,36.9175548 48.9335586,37.1390533 L48.9335586,40.5376508 Z M60.6590069,40.7011229 C60.6974897,40.8265348 60.7260414,40.9419635 60.7260414,41.0380502 C60.7260414,41.3562593 60.4963862,41.5197314 60.0842483,41.5197314 C59.8924552,41.5197314 59.940869,41.625801 60.0556966,41.625801 C60.7452828,41.625801 60.9941793,41.6064589 61.2722483,41.6064589 C61.6074207,41.6064589 61.7706621,41.625801 62.2299724,41.625801 C62.3832828,41.625801 62.4025241,41.5197314 62.2206621,41.5197314 C61.5503172,41.5197314 61.3870759,40.9806478 61.2436966,40.5470099 L60.1612138,37.3025254 C60.1034897,37.1390533 60.0172138,36.8788706 60.0172138,36.7634418 C60.0172138,36.3684882 60.5056966,36.3591291 60.7359724,36.3591291 C60.8222483,36.3591291 60.840869,36.2530594 60.7545931,36.2530594 L59.8161103,36.2530594 C59.5672138,36.2530594 59.3176966,36.3110858 59.1743172,36.5899866 L56.7697655,41.0767344 L54.5371448,36.5706445 C54.4030759,36.2917436 54.2690069,36.2530594 54.1349379,36.2530594 L53.0425241,36.2530594 C52.9084552,36.2530594 52.9376276,36.3591291 53.0524552,36.3591291 C53.5123862,36.3591291 53.6750069,36.4165315 53.6750069,36.6286709 C53.6750069,36.7347406 53.6365241,36.8695115 53.5694897,37.0616848 L52.4677655,40.3448536 C52.1996276,41.163462 52.0177655,41.5197314 51.356731,41.5197314 C51.1934897,41.5197314 51.212731,41.625801 51.3182483,41.625801 C51.6155586,41.625801 51.9408,41.6064589 52.2765931,41.6064589 C52.7172828,41.6064589 52.7551448,41.625801 53.2250069,41.625801 C53.3590759,41.625801 53.3969379,41.5197314 53.2150759,41.5197314 C52.7359034,41.5197314 52.5639724,41.4043026 52.5639724,41.1154187 C52.5639724,40.9419635 52.6310069,40.711106 52.7265931,40.412239 L53.9431448,36.6860733 L56.2806621,41.3562593 C56.414731,41.615818 56.4724552,41.7605719 56.558731,41.7605719 C56.6350759,41.7605719 56.7405931,41.5871168 56.970869,41.163462 L59.3654897,36.7440997 L60.6590069,40.7011229 Z M71.9543172,40.7011229 C71.9921793,40.8265348 72.0213517,40.9419635 72.0213517,41.0380502 C72.0213517,41.3562593 71.7910759,41.5197314 71.3795586,41.5197314 C71.1877655,41.5197314 71.2355586,41.625801 71.3503862,41.625801 C72.0405931,41.625801 72.2894897,41.6064589 72.5675586,41.6064589 C72.902731,41.6064589 73.0653517,41.625801 73.5252828,41.625801 C73.6785931,41.625801 73.6978345,41.5197314 73.5159724,41.5197314 C72.8450069,41.5197314 72.6823862,40.9806478 72.5383862,40.5470099 L71.4559034,37.3025254 C71.3981793,37.1390533 71.3125241,36.8788706 71.3125241,36.7634418 C71.3125241,36.3684882 71.8010069,36.3591291 72.0306621,36.3591291 C72.1169379,36.3591291 72.1361793,36.2530594 72.0499034,36.2530594 L71.1108,36.2530594 C70.8619034,36.2530594 70.6130069,36.3110858 70.4690069,36.5899866 L68.0644552,41.0767344 L65.8324552,36.5706445 C65.6983862,36.2917436 65.5643172,36.2530594 65.4302483,36.2530594 L64.3378345,36.2530594 C64.2037655,36.2530594 64.2323172,36.3591291 64.3471448,36.3591291 C64.8070759,36.3591291 64.9703172,36.4165315 64.9703172,36.6286709 C64.9703172,36.7347406 64.9318345,36.8695115 64.8648,37.0616848 L63.7630759,40.3448536 C63.4949379,41.163462 63.3124552,41.5197314 62.6514207,41.5197314 C62.4888,41.5197314 62.5080414,41.625801 62.6135586,41.625801 C62.9102483,41.625801 63.2361103,41.6064589 63.5712828,41.6064589 C64.0119724,41.6064589 64.0504552,41.625801 64.5196966,41.625801 C64.6537655,41.625801 64.6922483,41.5197314 64.5103862,41.5197314 C64.0312138,41.5197314 63.8586621,41.4043026 63.8586621,41.1154187 C63.8586621,40.9419635 63.9256966,40.711106 64.0219034,40.412239 L65.2384552,36.6860733 L67.5759724,41.3562593 C67.7100414,41.615818 67.7677655,41.7605719 67.8540414,41.7605719 C67.9303862,41.7605719 68.0359034,41.5871168 68.2655586,41.163462 L70.6608,36.7440997 L71.9543172,40.7011229 Z M74.3309379,39.0264698 C74.3309379,40.4615302 75.6610759,41.7218877 77.9321793,41.7218877 C80.298869,41.7218877 81.6873517,40.3554606 81.6873517,38.8823398 C81.6873517,37.4472793 80.3659034,36.1569727 78.0854897,36.1569727 C75.708869,36.1569727 74.3309379,37.5627081 74.3309379,39.0264698 Z M77.9421103,36.339787 C80.0499724,36.339787 80.8835586,37.7555053 80.8835586,39.0844961 C80.8835586,40.586942 79.8196966,41.5303383 78.0761793,41.5303383 C75.9676966,41.5303383 75.1341103,40.1439451 75.1341103,38.8149543 C75.1341103,37.3218675 76.1979724,36.339787 77.9421103,36.339787 Z M87.3499034,41.625801 C88.2505241,41.625801 89.7538345,41.4149096 89.7538345,40.1433212 C89.7538345,39.2373613 88.9885241,38.8137064 88.1928,38.6795595 C88.7011448,38.5741137 89.2554207,38.1791601 89.2554207,37.552725 C89.2554207,36.8108612 88.4901103,36.2530594 87.2251448,36.2530594 L85.4716966,36.2530594 C85.1265931,36.2530594 84.6859034,36.2724015 84.3699724,36.2724015 C84.0639724,36.2724015 83.7095586,36.2530594 83.3936276,36.2530594 C83.1633517,36.2530594 83.1441103,36.2624185 83.1441103,36.3011027 C83.1441103,36.3585051 83.2210759,36.3585051 83.3359034,36.3585051 C84.0254897,36.3585051 84.0925241,36.8008781 84.0925241,37.3405857 L84.0925241,40.7404311 C84.0925241,40.9619296 84.0639724,41.0973244 84.0161793,41.1934111 C83.9106621,41.3955674 83.594731,41.5103723 83.268869,41.5203553 C83.2210759,41.5203553 83.1441103,41.5203553 83.1441103,41.5777577 C83.1441103,41.615818 83.1732828,41.625801 83.3836966,41.625801 C83.6903172,41.625801 84.0546621,41.6064589 84.3321103,41.6064589 C84.6089379,41.6064589 85.0210759,41.625801 85.3661793,41.625801 L87.3499034,41.625801 Z M85.9601793,41.3668662 C84.6952138,41.3568832 84.6474207,41.2514374 84.6474207,40.3935209 L84.6474207,38.9097931 C84.6474207,38.890451 84.6666621,38.8810919 84.6759724,38.8810919 L87.4548,38.8810919 C88.5664552,38.8810919 89.0263862,39.4108164 89.0263862,40.113996 C89.0263862,40.8078166 88.5856966,41.3668662 87.3499034,41.3668662 L85.9601793,41.3668662 Z M84.6759724,38.612798 C84.6666621,38.612798 84.6474207,38.6028149 84.6474207,38.5834728 L84.6474207,36.9069478 C84.6474207,36.637406 84.7814897,36.5213533 85.0111448,36.5213533 L87.2251448,36.5213533 C87.732869,36.5213533 88.5285931,36.7047915 88.5285931,37.552725 C88.5285931,38.4006586 87.732869,38.612798 87.2251448,38.612798 L84.6759724,38.612798 Z M92.0156276,40.5376508 C92.0156276,40.8845611 92.0063172,41.0573923 91.9392828,41.1828041 C91.8145241,41.4043026 91.4886621,41.5103723 91.2782483,41.5197314 C91.1820414,41.5197314 91.0672138,41.5197314 91.0672138,41.5777577 C91.0672138,41.625801 91.1435586,41.625801 91.2397655,41.625801 C91.6512828,41.625801 92.0249379,41.6064589 92.3216276,41.6064589 C92.5990759,41.6064589 92.9913517,41.625801 93.3842483,41.625801 C93.4804552,41.625801 93.5568,41.625801 93.5568,41.5777577 C93.5568,41.5197314 93.4419724,41.5197314 93.3463862,41.5197314 C93.1353517,41.5103723 92.8094897,41.4043026 92.6853517,41.1828041 C92.6176966,41.0573923 92.6083862,40.8845611 92.6083862,40.5376508 L92.6083862,37.1390533 C92.6083862,36.9175548 92.6369379,36.792143 92.6853517,36.6960563 C92.8094897,36.4745579 93.1353517,36.3684882 93.3463862,36.3591291 C93.4419724,36.3591291 93.5568,36.3591291 93.5568,36.3011027 C93.5568,36.2530594 93.4804552,36.2530594 93.3842483,36.2530594 C92.972731,36.2530594 92.5990759,36.2724015 92.3030069,36.2724015 C92.0249379,36.2724015 91.6326621,36.2530594 91.2397655,36.2530594 C91.1435586,36.2530594 91.0672138,36.2530594 91.0672138,36.3011027 C91.0672138,36.3591291 91.1820414,36.3591291 91.2782483,36.3591291 C91.4886621,36.3684882 91.8145241,36.4745579 91.9392828,36.6960563 C91.9870759,36.792143 92.0156276,36.9175548 92.0156276,37.1390533 L92.0156276,40.5376508 Z M96.660869,37.5240238 C96.660869,37.0623087 96.6894207,36.8408103 96.7663862,36.6960563 C96.9196966,36.483917 97.2741103,36.3684882 97.5323172,36.3684882 C97.6378345,36.3684882 97.7526621,36.3684882 97.7526621,36.3110858 C97.7526621,36.2530594 97.6955586,36.2530594 97.5708,36.2530594 C97.1015586,36.2530594 96.7086621,36.2817606 96.3070759,36.2817606 C95.924731,36.2817606 95.5411448,36.2530594 95.148869,36.2530594 C95.0334207,36.2530594 94.9670069,36.2530594 94.9670069,36.3110858 C94.9670069,36.3684882 95.0812138,36.3684882 95.1960414,36.3684882 C95.454869,36.3684882 95.7900414,36.483917 95.9433517,36.6960563 C96.0296276,36.8408103 96.0681103,37.0716678 96.0681103,37.5240238 L96.0681103,40.422846 C96.0681103,40.9625535 95.8955586,41.5103723 95.186731,41.5103723 C95.1389379,41.5103723 95.1097655,41.5490565 95.1097655,41.5683986 C95.1097655,41.5871168 95.1389379,41.625801 95.186731,41.625801 C95.5610069,41.625801 95.9340414,41.6064589 96.2971448,41.6064589 C96.8042483,41.6064589 96.9196966,41.625801 97.4559724,41.625801 L100.205628,41.625801 C100.560041,41.625801 100.636386,41.5777577 100.761145,41.1647099 L101.096938,40.0665766 C101.106248,40.0185333 101.010041,39.9898321 100.98149,40.0572175 C100.406731,41.2894977 99.7357655,41.3568832 98.6725241,41.3568832 L97.6285241,41.3568832 C96.6701793,41.3568832 96.660869,41.1166665 96.660869,40.3941448 L96.660869,37.5240238 Z M103.205421,40.5376508 C103.205421,40.8845611 103.19549,41.0573923 103.128455,41.1828041 C103.004317,41.4043026 102.678455,41.5103723 102.468041,41.5197314 C102.371834,41.5197314 102.257007,41.5197314 102.257007,41.5777577 C102.257007,41.625801 102.333352,41.625801 102.428938,41.625801 C102.841076,41.625801 103.214731,41.6064589 103.511421,41.6064589 C103.788248,41.6064589 104.181145,41.625801 104.574041,41.625801 C104.669628,41.625801 104.746593,41.625801 104.746593,41.5777577 C104.746593,41.5197314 104.631766,41.5197314 104.536179,41.5197314 C104.325145,41.5103723 103.999283,41.4043026 103.874524,41.1828041 C103.80749,41.0573923 103.798179,40.8845611 103.798179,40.5376508 L103.798179,37.1390533 C103.798179,36.9175548 103.826731,36.792143 103.874524,36.6960563 C103.999283,36.4745579 104.325145,36.3684882 104.536179,36.3591291 C104.631766,36.3591291 104.746593,36.3591291 104.746593,36.3011027 C104.746593,36.2530594 104.669628,36.2530594 104.574041,36.2530594 C104.161903,36.2530594 103.788248,36.2724015 103.492179,36.2724015 C103.214731,36.2724015 102.821834,36.2530594 102.428938,36.2530594 C102.333352,36.2530594 102.257007,36.2530594 102.257007,36.3011027 C102.257007,36.3591291 102.371834,36.3591291 102.468041,36.3591291 C102.678455,36.3684882 103.004317,36.4745579 103.128455,36.6960563 C103.176248,36.792143 103.205421,36.9175548 103.205421,37.1390533 L103.205421,40.5376508 Z M111.481076,41.625801 C111.720662,41.625801 111.883903,41.6064589 112.055834,41.0199559 L112.295421,40.2200657 C112.314662,40.1626633 112.238317,40.1239791 112.199834,40.2007236 C111.711352,41.2607965 111.155834,41.3762253 110.111214,41.3762253 L108.990248,41.3762253 C107.899076,41.3762253 107.859972,41.2221123 107.859972,40.4035039 L107.859972,38.9578364 C107.859972,38.9384943 107.869283,38.9197761 107.888524,38.9197761 L110.05349,38.9197761 C110.398593,38.9197761 110.724455,39.1699758 110.829972,39.4881849 C110.867834,39.5942546 110.867834,39.6903412 110.925559,39.6903412 C110.992593,39.6903412 110.973352,39.5749124 110.973352,39.4881849 C110.973352,39.2854046 110.95411,38.9965207 110.95411,38.8043474 C110.95411,38.612798 110.973352,38.303948 110.973352,38.1017917 C110.973352,38.0150641 110.992593,37.9089944 110.925559,37.9089944 C110.867834,37.9089944 110.867834,37.995722 110.829972,38.1017917 C110.724455,38.4487019 110.379972,38.6702004 110.05349,38.6702004 L107.888524,38.6702004 C107.869283,38.6702004 107.859972,38.6608413 107.859972,38.6315162 L107.859972,36.8295793 C107.859972,36.5887388 107.96549,36.5020112 108.157283,36.5020112 L110.245283,36.5020112 C111.212938,36.5020112 111.730593,36.5406954 111.787697,37.5046817 C111.787697,37.5914093 111.893214,37.5720672 111.893214,37.5046817 L112.027283,36.2337173 C112.037214,36.1856739 112.027283,36.1569727 111.9888,36.1569727 C111.950938,36.1569727 111.873972,36.2530594 111.347007,36.2530594 L108.607283,36.2530594 C108.27211,36.2530594 107.96549,36.2724015 107.611076,36.2724015 C107.324317,36.2724015 106.941972,36.2530594 106.519903,36.2530594 C106.357283,36.2530594 106.3188,36.2530594 106.3188,36.3011027 C106.3188,36.3585051 106.357283,36.3585051 106.509972,36.3585051 C106.721007,36.3585051 107.06611,36.4639509 107.190248,36.6854494 C107.257283,36.8008781 107.267214,36.9936754 107.267214,37.3405857 L107.267214,40.7404311 C107.267214,40.9619296 107.238662,41.0973244 107.190248,41.1934111 C107.06611,41.4149096 106.721007,41.5203553 106.509972,41.5203553 C106.357283,41.5203553 106.3188,41.5203553 106.3188,41.5777577 C106.3188,41.625801 106.357283,41.625801 106.519903,41.625801 C106.92211,41.625801 107.295766,41.6064589 107.582524,41.6064589 C107.812179,41.6064589 108.052386,41.625801 108.41611,41.625801 L111.481076,41.625801 Z M120.525145,37.3699108 C120.525145,36.7728009 120.697697,36.3591291 121.397214,36.3591291 C121.521352,36.3591291 121.540593,36.3298039 121.540593,36.3011027 C121.540593,36.2724015 121.530662,36.2530594 121.425766,36.2530594 C121.062041,36.2530594 120.735559,36.2724015 120.372455,36.2724015 C120.085697,36.2724015 119.654317,36.2530594 119.366938,36.2530594 C119.318524,36.2530594 119.261421,36.2530594 119.261421,36.3011027 C119.261421,36.3591291 119.337766,36.3591291 119.4048,36.3591291 C120.200524,36.3591291 120.248317,36.7728009 120.248317,37.3505687 L120.248317,40.7491663 L116.031972,36.7534587 C115.505007,36.2530594 115.476455,36.2530594 115.064317,36.2530594 L113.963834,36.2530594 C113.867628,36.2530594 113.839076,36.3591291 114.002317,36.3591291 C114.691903,36.3591291 114.845214,36.7634418 114.864455,37.0230005 L114.864455,40.5183087 C114.864455,41.1541029 114.711145,41.5197314 113.973145,41.5197314 C113.810524,41.5197314 113.800593,41.625801 113.963834,41.625801 C114.327559,41.625801 114.605628,41.6064589 114.969352,41.6064589 C115.25611,41.6064589 115.716041,41.625801 116.003421,41.625801 C116.166041,41.625801 116.127559,41.5197314 115.99411,41.5197314 C115.198386,41.5197314 115.131352,41.1441199 115.131352,40.5183087 L115.131352,36.7347406 L120.248317,41.5677747 C120.381766,41.7025456 120.410317,41.7218877 120.468041,41.7218877 C120.525145,41.7218877 120.525145,41.5964759 120.525145,41.2021462 L120.525145,37.3699108 Z M129.425834,41.1347608 C130.029145,41.5003892 130.5648,41.625801 131.31211,41.625801 C131.398386,41.625801 131.417628,41.5290904 131.303421,41.5290904 C130.938455,41.5290904 130.497766,41.3269341 129.732455,40.8265348 C130.172524,40.3061693 130.315903,39.9979433 130.315903,39.4201755 C130.315903,38.7556801 130.124731,38.6789355 129.828662,38.6789355 C129.732455,38.6789355 129.445076,38.6882946 129.445076,38.7843813 C129.445076,38.8617498 129.550593,39.1119494 129.550593,39.5649294 C129.550593,39.9018567 129.483559,40.1907406 129.235283,40.566352 C127.202524,39.4108164 126.11011,38.0525005 126.11011,37.2632172 C126.11011,36.6467651 126.781076,36.4252667 127.538317,36.4252667 C128.985145,36.4252667 129.099972,37.4073472 129.071421,37.6481878 C129.06211,37.7442744 129.167007,37.7542574 129.186248,37.6581708 L129.330248,36.6754663 C129.368731,36.4346257 129.34949,36.5506785 128.965903,36.4159076 C128.630731,36.2911197 128.237834,36.1569727 127.394317,36.1569727 C126.982179,36.1569727 125.411834,36.2043921 125.411834,37.3012775 C125.411834,37.6675299 125.555214,38.0718426 126.005214,38.6209092 C125.391352,38.8711089 124.693697,39.4201755 124.693697,40.2387839 C124.693697,41.4149096 126.129972,41.7218877 127.078386,41.7218877 C127.576179,41.7218877 128.544455,41.6357841 129.425834,41.1353847 L129.425834,41.1347608 Z M128.946662,40.9138863 C128.218593,41.4342517 127.672386,41.5109962 127.059145,41.5109962 C125.928248,41.5109962 125.391352,40.9138863 125.391352,40.2206897 C125.391352,39.7677097 125.632179,39.3053706 126.196386,38.8910749 C126.962938,39.6909652 127.911972,40.3648196 128.946662,40.9138863 Z" id="Fill-3"></path>
        <path d="M18.292469,8.19095086 C18.292469,4.1440803 15.4261241,1.0686833 10.8851586,1.0686833 L0.000124137931,1.0686833 L0.000124137931,21.3991227 L4.50881379,21.3991227 L4.50881379,15.2807736 L10.8851586,15.2807736 C15.4261241,15.2807736 18.292469,12.2053766 18.292469,8.19095086 M13.8160552,8.19095086 C13.8160552,9.68029406 12.946469,10.9425233 10.6275724,10.9425233 L4.50881379,10.9425233 L4.50881379,5.40693353 L10.6275724,5.40693353 C12.946469,5.40693353 13.8160552,6.66916281 13.8160552,8.19095086" id="Fill-5"></path>
        <polygon id="Fill-7" points="76.2354 0.000187181802 67.1857448 9.16211244 58.1683655 0.000187181802 58.1683655 21.3994347 62.6447793 21.3994347 62.6447793 10.1005172 67.1857448 14.8274816 71.7589862 10.1005172 71.7589862 21.3994347 76.2354 21.3994347"></polygon>
        <polygon id="Fill-9" points="94.7169931 21.3993723 111.07651 21.3993723 111.07651 17.0611221 99.2256828 17.0611221 99.2256828 13.1440309 108.887338 13.1440309 108.887338 8.83822553 99.2256828 8.83822553 99.2256828 5.40655916 111.07651 5.40655916 111.07651 1.06830894 94.7169931 1.06830894"></polygon>
        <polygon id="Fill-11" points="129.556241 0.000187181802 129.556241 21.3994347 134.033276 21.3994347 134.033276 10.1660308 146.496103 22.4676188 146.496103 1.06899527 141.987414 1.06899527 141.987414 12.3023991"></polygon>
        <polygon id="Fill-13" points="163.695352 1.06862091 163.695352 5.40687113 169.36349 5.40687113 169.36349 21.3996843 173.839903 21.3996843 173.839903 5.40687113 179.508041 5.40687113 179.508041 1.06862091"></polygon>
        <polygon id="Fill-15" points="38.8585862 19.7621555 34.3498966 24.1584321 34.3498966 1.12883105 38.8585862 1.12883105"></polygon>
      </g>
    </g>
  </g>
</svg>
