<?xml version="1.0" encoding="UTF-8"?>
<svg xmlns="http://www.w3.org/2000/svg" xmlns:xlink="http://www.w3.org/1999/xlink" width="64px" height="71px" viewBox="0 0 64 71">
  <!-- Generator: Sketch 50.2 (55047) - http://www.bohemiancoding.com/sketch -->
  <title>sirius-logo</title>
  <desc>Created with Sketch.</desc>
  <defs></defs>
  <g id="logos" stroke="none" stroke-width="1" fill="none" fill-rule="evenodd">
    <g id="Artboard-Copy" transform="translate(-268.000000, -123.000000)" fill="#89775F">
      <g id="sirius-logo" transform="translate(268.000000, 122.000000)">
        <path d="M62.5496216,58.2509091 L62.7174054,58.2509091 L62.7174054,54.9574026 L62.5496216,54.9574026 C62.4648649,55.2708225 62.3091892,55.4283983 62.0808649,55.4283983 C61.8905946,55.4283983 61.7418378,55.4006926 61.6311351,55.3435498 C60.9219459,55.1132468 60.2265946,54.998961 59.5537297,54.998961 C58.6611892,54.998961 57.8620541,55.1998268 57.1615135,55.5998268 C56.4575135,56.0015584 55.9126486,56.5331602 55.5303784,57.194632 C55.1498378,57.8578355 54.9561081,58.5504762 54.9561081,59.2742857 C54.9561081,59.9028571 55.0633514,60.4587013 55.2795676,60.9435498 C55.4957838,61.4283983 55.7881081,61.8474459 56.1530811,62.2024242 C56.5197838,62.5574026 56.8795676,62.8483117 57.2341622,63.0699567 C57.5904865,63.2933333 58.1353514,63.6067532 58.8722162,64.0119481 C59.9446486,64.5833766 60.7437838,65.142684 61.2713514,65.6898701 C61.7954595,66.2370563 62.0601081,66.9418182 62.0601081,67.807619 C62.0601081,68.2266667 61.9667027,68.6439827 61.7885405,69.0612987 C61.6051892,69.4803463 61.2817297,69.8353247 60.8112432,70.1279654 C60.3424865,70.4206061 59.7145946,70.5677922 58.9362162,70.5677922 C57.9001081,70.5677922 57.0196757,70.2786147 56.2949189,69.7002597 C55.5701622,69.1219048 55.0823784,68.2664935 54.8315676,67.1374892 L54.6551351,67.1374892 L54.6551351,70.9972294 L54.8315676,70.9972294 C54.9076757,70.6474459 54.9682162,70.4206061 55.0149189,70.31671 C55.0581622,70.2110823 55.1567568,70.1591342 55.3020541,70.1591342 C55.3781622,70.1591342 55.5217297,70.1954978 55.731027,70.2647619 C56.2326486,70.5089177 56.7256216,70.6993939 57.2116757,70.8344589 C57.6994595,70.9695238 58.2616216,71.0370563 58.8947027,71.0370563 C59.9048649,71.0370563 60.748973,70.8431169 61.4322162,70.4535065 C62.1137297,70.0621645 62.624,69.5617316 62.9612973,68.9522078 C63.3003243,68.342684 63.4681081,67.7089177 63.4681081,67.0543723 C63.4681081,65.9807792 63.1567568,65.1357576 62.5288649,64.5193074 C61.9027027,63.9028571 61.024,63.2829437 59.8979459,62.6630303 C59.2216216,62.2872727 58.6871351,61.9738528 58.2875676,61.7279654 C57.8931892,61.4803463 57.5472432,61.2136797 57.2549189,60.9279654 C56.9625946,60.6422511 56.7411892,60.3132468 56.5924324,59.9392208 C56.4419459,59.5669264 56.3675676,59.1392208 56.3675676,58.6595671 C56.3675676,58.0379221 56.4921081,57.4872727 56.7446486,57.007619 C56.992,56.5262338 57.3483243,56.1452814 57.8084324,55.8664935 C58.2668108,55.5877056 58.7926486,55.4474459 59.3842162,55.4474459 C60.2905946,55.4474459 61.0188108,55.729697 61.5740541,56.2890043 C62.1258378,56.8517749 62.451027,57.5045887 62.5496216,58.2509091 Z M51.9481081,56.0656277 C52.1504865,55.7037229 52.6071351,55.5045887 53.3163243,55.4699567 L53.3163243,55.2916017 L48.396973,55.2916017 L48.396973,55.4699567 C49.1217297,55.5322944 49.5801081,55.7279654 49.7755676,56.0552381 C49.9727568,56.3825108 50.0678919,56.76 50.0678919,57.1842424 L50.0678919,65.6015584 C50.0678919,67.525368 49.4313514,68.9227706 48.1582703,69.7937662 C47.7344865,70.0864069 47.2761081,70.2959307 46.7900541,70.4206061 C46.3005405,70.547013 45.8802162,70.6093506 45.5256216,70.6093506 C44.6763243,70.6093506 43.9187027,70.3894372 43.251027,69.951342 C42.5798919,69.5115152 42.0782703,68.9019913 41.7461622,68.121039 C41.4313514,67.3885714 41.2739459,66.2561039 41.2739459,64.7236364 L41.2739459,57.1842424 C41.2739459,56.7790476 41.3742703,56.4136797 41.5662703,56.0864069 C41.7617297,55.7591342 42.2149189,55.5530736 42.9241081,55.4699567 L42.9241081,55.2916017 L38.0877838,55.2916017 L38.0877838,55.4699567 C38.7865946,55.525368 39.2276757,55.7089177 39.4092973,56.0240693 C39.5943784,56.3374892 39.6860541,56.7236364 39.6860541,57.1842424 L39.6860541,64.8483117 C39.6860541,65.4820779 39.7258378,66.0933333 39.8036757,66.6838095 C39.8797838,67.2725541 40.0631351,67.8387879 40.3554595,68.3825108 C40.7654054,69.1496104 41.4071351,69.7937662 42.2823784,70.31671 C43.1558919,70.8396537 44.1401081,71.1011255 45.2332973,71.1011255 C46.2019459,71.1011255 47.1290811,70.8604329 48.0181622,70.3790476 C48.9037838,69.8976623 49.5714595,69.1392208 50.016,68.1002597 L50.0678919,68.1418182 L50.0678919,70.6924675 L53.2955676,70.6924675 L53.2955676,70.5262338 C52.9478919,70.4621645 52.6538378,70.3825108 52.4151351,70.2855411 C52.172973,70.1868398 51.9878919,70.0223377 51.8495135,69.7885714 C51.7128649,69.5548052 51.6454054,69.2361905 51.6454054,68.8327273 L51.6454054,57.1634632 C51.6454054,56.794632 51.7457297,56.4275325 51.9481081,56.0656277 Z M49.7011892,9.25004329 L42.8272432,8.76519481 L44.2162162,8.02233766 L42.4242162,8.73575758 L42.1716757,8.71670996 L43.5225946,7.07688312 L41.9416216,8.60069264 L41.9191351,8.39636364 L42.5072432,6.46735931 L41.9018378,7.88554113 L41.6389189,3.99463203 L41.6389189,1.01108225 L41.4382703,1.01108225 L41.4330811,0.924502165 L41.4261622,1.01108225 L41.139027,1.01108225 C40.8916757,1.94787879 40.4211892,2.41714286 39.7362162,2.41714286 C39.1705946,2.41714286 38.7260541,2.33402597 38.3904865,2.16779221 C36.2681081,1.47861472 34.1941622,1.13575758 32.1738378,1.13575758 C29.5065946,1.13575758 27.1247568,1.73489177 25.0196757,2.93316017 C22.9145946,4.13316017 21.2903784,5.72277056 20.1452973,7.70372294 C19.0002162,9.68467532 18.4276757,11.7591342 18.4276757,13.9270996 C18.4276757,15.8041558 18.7494054,17.4664935 19.3963243,18.9158442 C20.0415135,20.3651948 20.9115676,21.6206061 22.0064865,22.6838095 C23.0979459,23.747013 24.1755676,24.6128139 25.2376216,25.2794805 C26.2996757,25.9478788 27.9342703,26.8846753 30.1431351,28.0950649 C33.3500541,29.8041558 35.7405405,31.4768831 37.3128649,33.1149784 C37.3336216,33.1357576 37.3509189,33.1582684 37.3699459,33.1790476 C39.1567568,34.9954978 40.2620541,37.5063203 40.2620541,40.2838095 C40.2620541,43.2864069 38.9612973,45.9755844 36.9132973,47.8128139 C37.216,47.6725541 37.5117838,47.5236364 37.7971892,47.3608658 C39.8382703,46.1920346 41.3638919,44.6976623 42.3740541,42.8725541 C43.3842162,41.0474459 43.8892973,39.1565368 43.8892973,37.1963636 C43.8892973,33.9842424 42.9517838,31.4561039 41.0767568,29.6119481 C39.2034595,27.7660606 36.5777297,25.91671 33.2047568,24.0604329 C31.1844324,22.9348918 29.580973,22.0015584 28.3926486,21.2604329 C27.2060541,20.521039 26.1751351,19.7227706 25.2998919,18.8690909 C24.4263784,18.0136797 23.7638919,17.0283983 23.3158919,15.9132468 C22.8696216,14.7980952 22.6447568,13.5201732 22.6447568,12.0812121 C22.6447568,10.2266667 23.0201081,8.57818182 23.7708108,7.13922078 C24.5197838,5.70199134 25.5818378,4.56606061 26.956973,3.73142857 C28.3303784,2.89679654 29.9027027,2.47948052 31.6739459,2.47948052 C34.3827027,2.47948052 36.5638919,3.31930736 38.220973,4.99722944 C39.1913514,5.98251082 39.9212973,7.06649351 40.4229189,8.24225108 L39.2345946,7.24658009 L40.5941622,8.6647619 C40.6010811,8.68380952 40.6062703,8.70458874 40.6131892,8.72363636 L40.2101622,8.75134199 L38.6257297,8.2578355 L39.7898378,8.77212121 L33.1165405,9.21021645 L40.3174054,9.72277056 L38.7104865,10.5885714 L40.8172973,9.73489177 L40.8709189,9.73489177 L39.3989189,11.5374892 L40.9003243,10.1019913 L40.9262703,10.4656277 L40.416,12.1452814 L40.9539459,10.9089177 L41.3915676,17.5322944 L41.6735135,10.207619 L42.7459459,12.0638961 L41.9225946,9.99463203 L41.9243243,9.92190476 L43.6921081,11.3660606 L42.1318919,9.7608658 L42.2771892,9.7625974 L44.2975135,10.3530736 L42.8082162,9.70025974 L49.7011892,9.25004329 Z M22.9128649,55.2916017 L17.5852973,55.2916017 L17.5852973,55.5115152 L17.7945946,55.5115152 C18.1526486,55.5115152 18.4778378,55.6361905 18.7770811,55.8872727 C19.0763243,56.138355 19.2268108,56.5712554 19.2268108,57.1842424 L19.2268108,68.8327273 C19.2268108,69.2500433 19.1472432,69.5825108 18.9915676,69.8301299 C18.8358919,70.0777489 18.6387027,70.2526407 18.4034595,70.3530736 C18.1647568,70.4552381 17.8914595,70.512381 17.5852973,70.5262338 L17.5852973,70.6924675 L22.4856216,70.6924675 L22.4856216,70.5262338 C21.3699459,70.4916017 20.812973,69.9270996 20.812973,68.8327273 L20.812973,63.1963636 C21.1779459,63.1963636 21.491027,63.2171429 21.7591351,63.2587013 C22.0272432,63.3002597 22.3299459,63.4058874 22.6620541,63.5738528 C22.9958919,63.7400866 23.3574054,64.0171429 23.7431351,64.40329 C24.1305946,64.7911688 24.5076757,65.2950649 24.8761081,65.9149784 L26.7148108,68.9574026 C26.7424865,68.9851082 26.8255135,69.1063203 26.9604324,69.3175758 C27.0953514,69.5305628 27.1991351,69.6898701 27.2700541,69.7937662 C27.3859459,69.9548052 27.4983784,70.1054545 27.6021622,70.2491775 C27.7076757,70.3911688 27.8183784,70.5400866 27.936,70.6924675 L30.7347027,70.6924675 L30.7347027,70.5262338 C30.368,70.4916017 29.9926486,70.334026 29.6121081,70.0552381 C29.2332973,69.7764502 28.7299459,69.1115152 28.1037838,68.0587013 L26.7148108,65.7054545 C25.9364324,64.3807792 25.0854054,63.4959307 24.1686486,63.0491775 L24.1686486,63.007619 C24.8916757,62.8760173 25.4953514,62.6249351 25.9779459,62.2561039 C26.4622703,61.8855411 26.8203243,61.4457143 27.0538378,60.9331602 C27.2873514,60.4206061 27.4032432,59.8855411 27.4032432,59.3279654 C27.4032432,58.8881385 27.3323243,58.4431169 27.1922162,57.9894372 C27.0486486,57.5357576 26.8099459,57.1063203 26.4795676,56.6976623 C26.1509189,56.2890043 25.6856216,55.9530736 25.0905946,55.6898701 C24.4955676,55.4232035 23.7708108,55.2916017 22.9128649,55.2916017 Z M21.7747027,55.6985281 C22.7364324,55.6985281 23.4992432,55.8924675 24.0665946,56.2803463 C24.6356757,56.6664935 25.036973,57.1444156 25.2739459,57.712381 C25.5109189,58.2803463 25.6285405,58.8604329 25.6285405,59.4526407 C25.6285405,60.164329 25.4970811,60.7651948 25.2307027,61.2569697 C24.9677838,61.7487446 24.5405405,62.1262338 23.9541622,62.3911688 C23.3643243,62.6561039 22.6101622,62.7877056 21.6899459,62.7877056 L20.812973,62.7877056 L20.812973,55.7937662 C21.0655135,55.7314286 21.3837838,55.6985281 21.7747027,55.6985281 Z M11.1956757,70.6924675 L16.0717838,70.6924675 L16.0717838,70.5262338 C15.6531892,70.5262338 15.2743784,70.3911688 14.9336216,70.1227706 C14.5928649,69.8561039 14.4216216,69.4249351 14.4216216,68.8327273 L14.4216216,57.142684 C14.4216216,56.5418182 14.5824865,56.1141126 14.9024865,55.8561039 C15.2224865,55.5980952 15.6116757,55.4699567 16.0717838,55.4699567 L16.0717838,55.2916017 L11.1956757,55.2916017 L11.1956757,55.4699567 C11.6402162,55.4699567 12.0259459,55.5877056 12.3494054,55.8249351 C12.6728649,56.0621645 12.8337297,56.5019913 12.8337297,57.142684 L12.8337297,68.8327273 C12.8337297,69.4387879 12.6728649,69.8716883 12.3494054,70.1331602 C12.0259459,70.394632 11.6402162,70.5262338 11.1956757,70.5262338 L11.1956757,70.6924675 Z M2.91718919,59.9392208 C2.7667027,59.5669264 2.69405405,59.1392208 2.69405405,58.6595671 C2.69405405,58.0379221 2.81686486,57.4872727 3.06767568,57.007619 C3.31848649,56.5262338 3.67308108,56.1452814 4.13491892,55.8664935 C4.5932973,55.5877056 5.11913514,55.4474459 5.7107027,55.4474459 C6.61708108,55.4474459 7.3452973,55.729697 7.89881081,56.2890043 C8.45405405,56.8517749 8.77924324,57.5045887 8.87610811,58.2509091 L9.04216216,58.2509091 L9.04216216,54.9574026 L8.87610811,54.9574026 C8.79135135,55.2708225 8.63740541,55.4283983 8.40562162,55.4283983 C8.21708108,55.4283983 8.06832432,55.4006926 7.95589189,55.3435498 C7.2467027,55.1132468 6.55308108,54.998961 5.87848649,54.998961 C4.98594595,54.998961 4.18854054,55.1998268 3.48627027,55.5998268 C2.78227027,56.0015584 2.23913514,56.5331602 1.85686486,57.194632 C1.47286486,57.8578355 1.28432432,58.5504762 1.28432432,59.2742857 C1.28432432,59.9028571 1.39156757,60.4587013 1.60778378,60.9435498 C1.824,61.4283983 2.11459459,61.8474459 2.47783784,62.2024242 C2.84454054,62.5574026 3.20432432,62.8483117 3.55891892,63.0699567 C3.91697297,63.2933333 4.46010811,63.6067532 5.1987027,64.0119481 C6.27113514,64.5833766 7.07027027,65.142684 7.59610811,65.6898701 C8.12194595,66.2370563 8.38659459,66.9418182 8.38659459,67.807619 C8.38659459,68.2266667 8.29318919,68.6439827 8.1132973,69.0612987 C7.93167568,69.4803463 7.60648649,69.8353247 7.136,70.1279654 C6.66724324,70.4206061 6.04281081,70.5677922 5.26097297,70.5677922 C4.22313514,70.5677922 3.3427027,70.2786147 2.61967568,69.7002597 C1.89664865,69.1219048 1.40713514,68.2664935 1.15632432,67.1374892 L0.979891892,67.1374892 L0.979891892,70.9972294 L1.15632432,70.9972294 C1.23416216,70.6474459 1.2947027,70.4206061 1.33967568,70.31671 C1.38464865,70.2110823 1.47978378,70.1591342 1.62681081,70.1591342 C1.70291892,70.1591342 1.84648649,70.1954978 2.05578378,70.2647619 C2.55567568,70.5089177 3.05210811,70.6993939 3.53816216,70.8344589 C4.02767568,70.9695238 4.58637838,71.0370563 5.21945946,71.0370563 C6.22962162,71.0370563 7.07545946,70.8431169 7.75697297,70.4535065 C8.44021622,70.0621645 8.95048649,69.5617316 9.28778378,68.9522078 C9.62508108,68.342684 9.79459459,67.7089177 9.79459459,67.0543723 C9.79459459,65.9807792 9.48151351,65.1357576 8.85535135,64.5193074 C8.22745946,63.9028571 7.35048649,63.2829437 6.22443243,62.6630303 C5.54637838,62.2872727 5.01016216,61.9738528 4.61405405,61.7279654 C4.21621622,61.4803463 3.872,61.2136797 3.57967568,60.9279654 C3.28735135,60.6422511 3.06594595,60.3132468 2.91718919,59.9392208 Z M36.5552432,55.2916017 L31.6756757,55.2916017 L31.6756757,55.4699567 C32.1219459,55.4699567 32.5059459,55.5877056 32.8294054,55.8249351 C33.1528649,56.0621645 33.3171892,56.5019913 33.3171892,57.142684 L33.3171892,68.8327273 C33.3171892,69.4387879 33.1528649,69.8716883 32.8294054,70.1331602 C32.5059459,70.394632 32.1219459,70.5262338 31.6756757,70.5262338 L31.6756757,70.6924675 L36.5552432,70.6924675 L36.5552432,70.5262338 C36.1349189,70.5262338 35.7578378,70.3911688 35.4153514,70.1227706 C35.0745946,69.8561039 34.9050811,69.4249351 34.9050811,68.8327273 L34.9050811,57.142684 C34.9050811,56.5418182 35.0624865,56.1141126 35.3824865,55.8561039 C35.7042162,55.5980952 36.0934054,55.4699567 36.5552432,55.4699567 L36.5552432,55.2916017 Z" id="Fill-14"></path>
      </g>
    </g>
  </g>
</svg>
